<?xml version="1.0" encoding="utf-8"?>
<!-- Generator: Adobe Illustrator 19.0.0, SVG Export Plug-In . SVG Version: 6.00 Build 0)  -->
<svg version="1.1" id="Layer_1" xmlns="http://www.w3.org/2000/svg" xmlns:xlink="http://www.w3.org/1999/xlink" x="0px" y="0px"
	 viewBox="0 0 256 256" style="enable-background:new 0 0 256 256;" xml:space="preserve">
<style type="text/css">
	.st0{fill:url(#XMLID_4_);stroke:#000000;stroke-width:11;stroke-miterlimit:10;}
	.st1{fill:#FFFFFF;}
</style>
<g id="Layer_1_1_">
	
		<linearGradient id="XMLID_4_" gradientUnits="userSpaceOnUse" x1="10" y1="146" x2="210" y2="146" gradientTransform="matrix(1 0 0 -1 0 256)">
		<stop  offset="0" style="stop-color:#2484C6"/>
		<stop  offset="1" style="stop-color:#2484C6;stop-opacity:0"/>
	</linearGradient>
	<circle id="XMLID_2_" class="st0" cx="110" cy="110" r="100"/>
</g>
<g id="digital">
	<g id="XMLID_1_">
		<g id="XMLID_10_">
			<polygon id="XMLID_33_" class="st1" points="181,225.6 225.8,180.8 245,198.8 199.1,244.8 			"/>
			<path id="XMLID_30_" d="M225.9,188.4l11.2,10.5l-37.9,37.9l-10.5-11.2L225.9,188.4 M225.8,175c-1.2,0-2.5,0.5-3.4,1.4L176.8,222
				c-1.9,1.9-1.9,4.9-0.1,6.8l18.9,20.1c1,1,2.3,1.5,3.6,1.5c1.2,0,2.5-0.5,3.4-1.4l46.9-46.9c1.9-1.9,1.9-5.1-0.1-7l-20.1-18.9
				C228.2,175.5,227,175,225.8,175L225.8,175z"/>
		</g>
		<g id="XMLID_8_">
			<polygon id="XMLID_28_" class="st1" points="129.1,198.2 86.3,86.1 200.5,130 207.3,174 174.4,206.9 			"/>
			<path id="XMLID_25_" d="M95.9,95.6l99.7,38.3l5.9,38.2L172.6,201l-39.5-7.6L95.9,95.6 M76.8,76.5L125,203l51.2,9.9l36.9-36.9
				l-7.7-50L76.8,76.5L76.8,76.5z"/>
		</g>
	</g>
</g>
</svg>
